<svg xmlns="http://www.w3.org/2000/svg" width="320" height="82" viewBox="0 0 320 82" fill="none"><g filter="url(#a)"><path d="M87.28 34.39H64.32L63.47 35.03v20.48h6.36v-7.68l.61-.55h16.85c4.26 0 6.25-1.15 6.25-4.06v-4.7c0-2.95-2-4.14-6.25-4.14Zm0 7.57c0 1.39-.91 1.68-2.91 1.68H70.5l-.68-.66v-4.39l.61-.56h14.19c2 .01 2.68.3 2.68 1.7v2.23Z" fill="#fff"/><path d="m105.13 38.27 5.47 8.04-.3.78H98.2l-3.09 3.81h18l1.25.76 2.8 3.86h7.27l-15.94-21.39" fill="#fff"/><path d="M177.46 51.36v-5.68l.66-.56h12.17v-3.62h-19.29v14.03h28.45v-3.6h-21.3" fill="#fff"/><path d="M199.74 34.39h-28.75v3.98h28.75v-3.98Z" fill="#fff"/><path d="M138.92 38.16h23.16c-.36-2.95-2.18-3.77-6.81-3.77h-16.58c-5.23 0-6.9 1.03-6.9 4.99v11.14c0 3.97 1.67 4.99 6.9 4.99h16.58c4.71 0 6.52-.89 6.64-3.95h-23.02l-.68-.68V38.59" fill="#fff"/><path d="M48.02 42.61H31.17l-.5-.55v-3.61l.49-.38h22.71l.31-.76c-.77-1.96-2.78-2.87-6.5-2.87H31.91c-5.23 0-6.9 1.03-6.9 4.99v2.33c0 3.97 1.67 4.99 6.9 4.99h16.8l.53.47v3.78l-.43.59H29.6v-.02h-5.04s-.57.29-.55.43c.43 2.78 2.32 3.57 6.85 3.57h17.19c5.22 0 6.94-.99 6.94-4.97v-2.91c0-3.97-1.72-4.99-6.94-4.99Z" fill="#fff"/><path d="M217.82 34.3h-9.46l-.52.98 10.5 7.68c1.99-1.16 4.15-2.32 6.47-3.48" fill="#fff"/><path d="m226.29 48.77 9.23 6.75h9.57l.4-.9-13.79-10.12c-1.83 1.36-3.64 2.73-5.41 4.27Z" fill="#fff"/><path d="M216.41 55.5h-8.56l-.72-1.14c5.79-5.63 31.81-29.77 88.37-32.37 0 0-47.52 1.61-79.09 33.51Z" fill="#fff"/></g><defs><filter id="a" x="0" y="0" width="319.54" height="81.52" color-interpolation-filters="sRGB" filterUnits="userSpaceOnUse"><feFlood flood-opacity="0" result="BackgroundImageFix"/><feColorMatrix in="SourceAlpha" result="hardAlpha" values="0 0 0 0 0 0 0 0 0 0 0 0 0 0 0 0 0 0 127 0"/><feOffset dy="2"/><feGaussianBlur stdDeviation="12"/><feComposite in2="hardAlpha" operator="out"/><feColorMatrix values="0 0 0 0 0 0 0 0 0 0 0 0 0 0 0 0 0 0 0.3 0"/><feBlend in2="BackgroundImageFix" mode="normal" result="effect1_dropShadow"/><feBlend in="SourceGraphic" in2="effect1_dropShadow" mode="normal" result="shape"/></filter></defs></svg>