<svg xmlns="http://www.w3.org/2000/svg" width="320" height="82" viewBox="0 0 320 82" fill="none">
  <g filter="url(#filter0_d_18_390)">
    <path d="M87.28 34.3906H64.3194L63.4688 35.0285V55.5096H69.8248V47.8293L70.4315 47.2842H87.2808C91.5351 47.2842 93.5296 46.1364 93.5296 43.1916V38.489C93.5288 35.5392 91.5351 34.3906 87.28 34.3906ZM87.28 41.9626C87.28 43.35 86.3646 43.6382 84.3701 43.6382H70.5011L69.824 42.9781V38.5908L70.4307 38.0342H84.3701C86.3646 38.0342 87.28 38.319 87.28 39.7131V41.9626Z" fill="white"/>
    <path d="M105.126 38.265L110.595 46.3L110.292 47.0783H98.1969L95.1094 50.8868H113.114L114.362 51.6487L117.157 55.5147H124.431L108.487 34.1289" fill="white"/>
    <path d="M177.455 51.359V45.6745L178.11 45.108H190.278V41.4883H170.992V55.5181H199.441V51.9156H178.138" fill="white"/>
    <path d="M199.741 34.3906H170.992V38.3708H199.741V34.3906Z" fill="white"/>
    <path d="M138.92 38.1552H162.081C161.724 35.2022 159.896 34.3828 155.26 34.3828H138.673C133.442 34.3828 131.773 35.4066 131.773 39.376V50.5127C131.773 54.4863 133.442 55.51 138.673 55.51H155.26C159.964 55.51 161.766 54.6242 161.888 51.5611H138.92L138.238 50.9183V38.5854" fill="white"/>
    <path d="M48.0165 42.6148H31.1672L30.6711 42.0672V38.4533L31.1648 38.0707H53.8789L54.1892 37.3096C53.4155 35.3138 51.4119 34.3828 47.6915 34.3828H31.9131C26.6853 34.3828 25.0142 35.4066 25.0142 39.376V41.7109C25.0142 45.6853 26.6853 46.7074 31.9131 46.7074H48.7248L49.2529 47.1721V50.9503L48.8222 51.5397H29.5919V51.5217H24.5549C24.5549 51.5217 23.9785 51.8115 24.0006 51.9469C24.4305 54.7235 26.3169 55.51 30.8332 55.51H48.0165C53.2435 55.51 54.9646 54.4863 54.9646 50.5127V47.6039C54.9646 43.6369 53.2435 42.6148 48.0165 42.6148Z" fill="white"/>
    <path d="M217.822 34.3047H208.365L207.852 35.2841L218.355 42.9611C220.344 41.806 222.509 40.6353 224.864 39.4802" fill="white"/>
    <path d="M217.822 34.3047H208.365L207.852 35.2841L218.355 42.9611C220.344 41.806 222.509 40.6353 224.864 39.4802" fill="white"/>
    <path d="M226.289 48.7726L235.521 55.5228H245.094L245.49 54.6287L231.705 44.5117C229.874 45.859 228.066 47.2817 226.289 48.7726Z" fill="white"/>
    <path d="M226.289 48.7726L235.521 55.5228H245.094L245.49 54.6287L231.705 44.5117C229.874 45.859 228.066 47.2817 226.289 48.7726Z" fill="white"/>
    <path d="M216.413 55.5011H207.856L207.133 54.3656C212.951 48.7329 238.973 24.5869 295.536 22C295.536 22 248.059 23.6058 216.413 55.5011Z" fill="white"/>
    <path d="M216.413 55.5011H207.856L207.133 54.3656C212.951 48.7329 238.973 24.5869 295.536 22C295.536 22 248.059 23.6058 216.413 55.5011Z" fill="white"/>
  </g>
  <defs>
    <filter id="filter0_d_18_390" x="0" y="0" width="319.536" height="81.5227" filterUnits="userSpaceOnUse" color-interpolation-filters="sRGB">
      <feFlood flood-opacity="0" result="BackgroundImageFix"/>
      <feColorMatrix in="SourceAlpha" type="matrix" values="0 0 0 0 0 0 0 0 0 0 0 0 0 0 0 0 0 0 127 0" result="hardAlpha"/>
      <feOffset dy="2"/><feGaussianBlur stdDeviation="12"/><feComposite in2="hardAlpha" operator="out"/>
      <feColorMatrix type="matrix" values="0 0 0 0 0 0 0 0 0 0 0 0 0 0 0 0 0 0 0.3 0"/>
      <feBlend mode="normal" in2="BackgroundImageFix" result="effect1_dropShadow"/>
      <feBlend mode="normal" in="SourceGraphic" in2="effect1_dropShadow" result="shape"/>
    </filter>
  </defs>
</svg>