<svg width="320" height="82" viewBox="0 0 320 82" fill="none" xmlns="http://www.w3.org/2000/svg">
<g clip-path="url(#clip0_18_386)">
<g filter="url(#filter0_d_18_386)">
<path d="M111.28 60.3906H88.3194L87.4688 61.0285V81.5096H93.8248V73.8293L94.4315 73.2842H111.281C115.535 73.2842 117.53 72.1364 117.53 69.1916V64.489C117.529 61.5392 115.535 60.3906 111.28 60.3906ZM111.28 67.9626C111.28 69.35 110.365 69.6382 108.37 69.6382H94.5011L93.824 68.9781V64.5908L94.4307 64.0342H108.37C110.365 64.0342 111.28 64.319 111.28 65.7131V67.9626Z" fill="white"/>
<path d="M129.126 64.265L134.595 72.3L134.292 73.0783H122.197L119.109 76.8868H137.114L138.362 77.6487L141.157 81.5147H148.431L132.487 60.1289" fill="white"/>
<path d="M201.455 77.359V71.6745L202.11 71.108H214.278V67.4883H194.992V81.5181H223.441V77.9156H202.138" fill="white"/>
<path d="M223.741 60.3906H194.992V64.3708H223.741V60.3906Z" fill="white"/>
<path d="M162.92 64.1552H186.081C185.724 61.2022 183.896 60.3828 179.26 60.3828H162.673C157.442 60.3828 155.773 61.4066 155.773 65.376V76.5127C155.773 80.4863 157.442 81.51 162.673 81.51H179.26C183.964 81.51 185.766 80.6242 185.888 77.5611H162.92L162.238 76.9183V64.5854" fill="white"/>
<path d="M72.0165 68.6148H55.1672L54.6711 68.0672V64.4533L55.1648 64.0707H77.8789L78.1892 63.3096C77.4155 61.3138 75.4119 60.3828 71.6915 60.3828H55.9131C50.6853 60.3828 49.0142 61.4066 49.0142 65.376V67.7109C49.0142 71.6853 50.6853 72.7074 55.9131 72.7074H72.7248L73.2529 73.1721V76.9503L72.8222 77.5397H53.5919V77.5217H48.5549C48.5549 77.5217 47.9785 77.8115 48.0006 77.9469C48.4305 80.7235 50.3169 81.51 54.8332 81.51H72.0165C77.2435 81.51 78.9646 80.4863 78.9646 76.5127V73.6039C78.9646 69.6369 77.2435 68.6148 72.0165 68.6148Z" fill="white"/>
<path d="M241.822 60.3047H232.365L231.852 61.2841L242.355 68.9611C244.344 67.806 246.509 66.6353 248.864 65.4802" fill="white"/>
<path d="M241.822 60.3047H232.365L231.852 61.2841L242.355 68.9611C244.344 67.806 246.509 66.6353 248.864 65.4802" fill="white"/>
<path d="M250.289 74.7726L259.521 81.5228H269.094L269.49 80.6287L255.705 70.5117C253.874 71.859 252.066 73.2817 250.289 74.7726Z" fill="white"/>
<path d="M250.289 74.7726L259.521 81.5228H269.094L269.49 80.6287L255.705 70.5117C253.874 71.859 252.066 73.2817 250.289 74.7726Z" fill="white"/>
<path d="M240.413 81.5011H231.856L231.133 80.3656C236.951 74.7329 262.973 50.5869 319.536 48C319.536 48 272.059 49.6058 240.413 81.5011Z" fill="white"/>
<path d="M240.413 81.5011H231.856L231.133 80.3656C236.951 74.7329 262.973 50.5869 319.536 48C319.536 48 272.059 49.6058 240.413 81.5011Z" fill="white"/>
</g>
</g>
<defs>
<filter id="filter0_d_18_386" x="24" y="26" width="319.536" height="81.5227" filterUnits="userSpaceOnUse" color-interpolation-filters="sRGB">
<feFlood flood-opacity="0" result="BackgroundImageFix"/>
<feColorMatrix in="SourceAlpha" type="matrix" values="0 0 0 0 0 0 0 0 0 0 0 0 0 0 0 0 0 0 127 0" result="hardAlpha"/>
<feOffset dy="2"/>
<feGaussianBlur stdDeviation="12"/>
<feComposite in2="hardAlpha" operator="out"/>
<feColorMatrix type="matrix" values="0 0 0 0 0 0 0 0 0 0 0 0 0 0 0 0 0 0 0.3 0"/>
<feBlend mode="normal" in2="BackgroundImageFix" result="effect1_dropShadow_18_386"/>
<feBlend mode="normal" in="SourceGraphic" in2="effect1_dropShadow_18_386" result="shape"/>
</filter>
<clipPath id="clip0_18_386">
<rect width="320" height="82" fill="white"/>
</clipPath>
</defs>
</svg>
